<?xml version="1.0" standalone="no"?>
<!DOCTYPE svg PUBLIC "-//W3C//DTD SVG 20010904//EN"
 "http://www.w3.org/TR/2001/REC-SVG-20010904/DTD/svg10.dtd">
<svg version="1.0" xmlns="http://www.w3.org/2000/svg"
 width="486.000000pt" height="455.000000pt" viewBox="0 0 486.000000 455.000000"
 preserveAspectRatio="xMidYMid meet">

<g transform="translate(0.000000,455.000000) scale(0.100000,-0.100000)"
fill="#000000" stroke="none">
<path d="M843 3910 c-59 -12 -145 -70 -181 -122 -66 -97 -62 22 -62 -1687 0
-1391 2 -1553 16 -1601 32 -109 116 -193 224 -225 50 -14 157 -16 1155 -13
l1100 3 57 27 c67 31 127 90 159 156 21 42 24 64 27 211 l4 163 75 35 c41 19
80 32 86 29 7 -2 68 -54 136 -115 68 -61 127 -112 130 -113 54 -13 62 -7 230
161 208 208 231 235 231 268 0 26 -48 99 -145 223 -28 36 -61 80 -74 98 l-23
34 34 76 c20 42 42 95 49 116 13 37 18 40 74 53 33 7 89 19 125 27 36 8 103
22 150 31 127 24 120 2 120 346 0 265 -1 290 -18 307 -11 11 -55 25 -108 36
-49 10 -102 22 -119 26 -16 5 -70 17 -118 26 -72 14 -90 21 -97 38 -4 12 -27
70 -50 129 l-43 108 29 39 c16 21 71 93 122 159 70 93 92 129 92 152 0 27 -27
58 -197 230 -118 118 -208 201 -223 204 -32 7 -55 -8 -204 -143 l-115 -103
-74 32 -75 31 -4 172 c-3 154 -5 175 -26 213 -35 66 -79 110 -140 140 l-57 28
-1115 2 c-613 0 -1134 -3 -1157 -7z m2194 -247 c20 -9 44 -30 54 -47 18 -30
19 -77 17 -1539 l-3 -1509 -37 -34 c-24 -21 -48 -34 -65 -34 -16 0 -487 -1
-1048 -2 -1003 -3 -1021 -3 -1054 17 -18 11 -42 36 -52 55 -18 33 -19 90 -19
1515 0 1389 1 1482 18 1515 9 19 32 45 51 57 l34 23 1034 0 c946 0 1038 -1
1070 -17z m444 -1064 c187 -310 193 -679 17 -994 -45 -81 -124 -186 -145 -193
-10 -3 -13 137 -13 680 l1 683 49 -54 c28 -30 68 -85 91 -122z"/>
<path d="M1328 2284 c2 -662 6 -952 14 -961 8 -10 57 -13 205 -13 l195 0 -8
23 c-4 12 -9 167 -11 345 l-4 323 82 -2 c77 -2 82 -3 96 -28 8 -14 46 -82 84
-151 39 -69 113 -204 166 -300 52 -96 104 -183 115 -192 18 -16 45 -18 240
-18 121 0 218 3 216 8 -7 15 -154 262 -222 372 -39 63 -103 170 -142 237 l-72
123 44 19 c61 28 163 103 202 151 85 104 126 233 126 405 1 319 -152 527 -429
582 -61 11 -176 16 -490 20 l-410 5 3 -948z m777 577 c95 -25 148 -94 160
-206 13 -130 -30 -230 -118 -270 -60 -28 -185 -45 -329 -45 l-98 0 0 268 c0
148 2 271 4 273 8 8 342 -9 381 -20z"/>
<path d="M1135 875 c-28 -27 -31 -52 -11 -81 14 -18 33 -19 590 -22 566 -2
576 -2 596 18 26 26 26 64 0 90 -20 20 -33 20 -585 20 l-566 0 -24 -25z"/>
</g>
</svg>
